<svg xmlns="http://www.w3.org/2000/svg" width="180" height="360" viewBox="0 0 180 360" role="img" aria-label="">
  <defs>
    <linearGradient id="g" x1="0" y1="0" x2="1" y2="1">
      <stop offset="0" stop-color="#8DE0FF"/>
      <stop offset="0.48" stop-color="#4E70F1"/>
      <stop offset="1" stop-color="#FBAB9C"/>
    </linearGradient>
    <pattern id="dots" width="28" height="28" patternUnits="userSpaceOnUse">
      <circle cx="4" cy="4" r="2.2" fill="#ffffff" opacity="0.5"/>
      <circle cx="18" cy="18" r="1.5" fill="#ffffff" opacity="0.28"/>
    </pattern>
  </defs>
  <rect width="180" height="360" fill="url(#g)" opacity="0.95"/>
  <rect width="180" height="360" fill="url(#dots)" opacity="0.8"/>
  <path d="M-28 82 C26 34 78 34 122 86 C152 122 184 134 216 116" fill="none" stroke="#ffffff" stroke-width="16" stroke-linecap="round" opacity="0.24"/>
  <path d="M-36 236 C20 182 86 182 132 240 C158 272 184 286 212 278" fill="none" stroke="#ffffff" stroke-width="12" stroke-linecap="round" opacity="0.2"/>
  <path d="M56 -24 L196 116 L56 256 L-84 116 Z" fill="#ffffff" opacity="0.11"/>
  <path d="M82 132 L190 240 L82 348 L-26 240 Z" fill="#0b1220" opacity="0.18"/>
</svg>
